C:\Users\israe\Dropbox\PhDWork\ExperimentalData\subject9\145\P9S145W07_filtered35.mot
nRows=18
nColumns=28

name C:\Users\israe\Dropbox\PhDWork\ExperimentalData\subject9\145\P9S145W07_filtered35.mot
datacolumns 28
datarows 18
range 1.6720000000 1.6890000000
endheader
time	ground_force_1_vx	ground_force_1_vy	ground_force_1_vz	ground_force_1_px	ground_force_1_py	ground_force_1_pz	ground_moment_1_mx	ground_moment_1_my	ground_moment_1_mz	ground_force_2_vx	ground_force_2_vy	ground_force_2_vz	ground_force_2_px	ground_force_2_py	ground_force_2_pz	ground_moment_2_mx	ground_moment_2_my	ground_moment_2_mz	ground_force_3_vx	ground_force_3_vy	ground_force_3_vz	ground_force_3_px	ground_force_3_py	ground_force_3_pz	ground_moment_3_mx	ground_moment_3_my	ground_moment_3_mz
        1.6720000000	        0.0000000000	        0.0000000000	        0.0000000000	        0.1988394961	        0.0000558755	       -0.3004071324	        0.0000000000	        0.0000000000	       -0.0000000000	        0.0000000000	        0.0000000000	       -0.0000000000	        0.2029003516	       -0.0000795827	        0.4543649445	       -0.0000000000	       -0.0000000000	       -0.0000000000	       -0.0126617123	        0.0678088605	       -0.0400166572	        0.2076431971	        0.0000770316	        1.3583900146	       -0.0002015354	        0.0028848631	        0.0045658367	
        1.6730000000	        0.0000000000	        0.0000000000	        0.0000000000	        0.1988394961	        0.0000558755	       -0.3004071324	        0.0000000000	        0.0000000000	       -0.0000000000	        0.0000000000	        0.0000000000	       -0.0000000000	        0.2029003516	       -0.0000795827	        0.4543649445	       -0.0000000000	       -0.0000000000	       -0.0000000000	       -0.0114549623	        0.0593986374	       -0.0353867913	        0.2076431971	        0.0000770316	        1.3583900146	       -0.0002507687	        0.0024921213	        0.0038805391	
        1.6740000000	        0.0000000000	        0.0000000000	        0.0000000000	        0.1988394961	        0.0000558755	       -0.3004071324	        0.0000000000	        0.0000000000	       -0.0000000000	       -0.0000000000	        0.0000000000	       -0.0000000000	        0.2029003516	       -0.0000795827	        0.4543649445	       -0.0000000000	       -0.0000000000	       -0.0000000000	       -0.0099180198	        0.0499679543	       -0.0300267119	        0.2076431971	        0.0000770316	        1.3583900146	       -0.0002684652	        0.0020693807	        0.0031722273	
        1.6750000000	        0.0000000000	        0.0000000000	        0.0000000000	        0.1988394961	        0.0000558755	       -0.3004071324	        0.0000000000	        0.0000000000	       -0.0000000000	       -0.0000000000	        0.0000000000	       -0.0000000000	        0.2029003516	       -0.0000795827	        0.4543649445	       -0.0000000000	       -0.0000000000	       -0.0000000000	       -0.0082533122	        0.0404357835	       -0.0245070003	        0.2076431971	        0.0000770316	        1.3583900146	       -0.0002636491	        0.0016527763	        0.0024926904	
        1.6760000000	        0.0000000000	        0.0000000000	        0.0000000000	        0.1988394961	        0.0000558755	       -0.3004071324	        0.0000000000	        0.0000000000	       -0.0000000000	       -0.0000000000	        0.0000000000	       -0.0000000000	        0.2029003516	       -0.0000795827	        0.4543649445	        0.0000000000	       -0.0000000000	        0.0000000000	       -0.0066062303	        0.0314321714	       -0.0192249020	        0.2076431971	        0.0000770316	        1.3583900146	       -0.0002438561	        0.0012664472	        0.0018752728	
        1.6770000000	        0.0000000000	        0.0000000000	        0.0000000000	        0.1988394961	        0.0000558755	       -0.3004071324	        0.0000000000	        0.0000000000	       -0.0000000000	       -0.0000000000	        0.0000000000	        0.0000000000	        0.2029003516	       -0.0000795827	        0.4543649445	        0.0000000000	        0.0000000000	        0.0000000000	       -0.0050743425	        0.0233515886	       -0.0144351262	        0.2076431971	        0.0000770316	        1.3583900146	       -0.0002151391	        0.0009248789	        0.0013387113	
        1.6780000000	       -0.0000000000	        0.0000000000	        0.0000000000	        0.1988394961	        0.0000558755	       -0.3004071324	        0.0000000000	        0.0000000000	       -0.0000000000	       -0.0000000000	        0.0000000000	        0.0000000000	        0.2029003516	       -0.0000795827	        0.4543649445	        0.0000000000	        0.0000000000	        0.0000000000	       -0.0037166467	        0.0164039015	       -0.0102796813	        0.2076431971	        0.0000770316	        1.3583900146	       -0.0001821656	        0.0006350968	        0.0008906544	
        1.6790000000	       -0.0000000000	        0.0000000000	        0.0000000000	        0.1988394961	        0.0000558755	       -0.3004071324	        0.0000000000	        0.0000000000	       -0.0000000000	       -0.0000000000	        0.0000000000	        0.0000000000	        0.2029003516	       -0.0000795827	        0.4543649445	        0.0000000000	        0.0000000000	        0.0000000000	       -0.0025622657	        0.0106605367	       -0.0068151882	        0.2076431971	        0.0000770316	        1.3583900146	       -0.0001483699	        0.0003986230	        0.0005307459	
        1.6800000000	       -0.0000000000	        0.0000000000	       -0.0000000000	        0.1988394961	        0.0000558755	       -0.3004071324	       -0.0000000000	        0.0000000000	        0.0000000000	       -0.0000000000	        0.0000000000	        0.0000000000	        0.2029003516	       -0.0000795827	        0.4543649445	        0.0000000000	        0.0000000000	        0.0000000000	       -0.0016182215	        0.0060944880	       -0.0040367682	        0.2076431971	        0.0000770316	        1.3583900146	       -0.0001161342	        0.0002131496	        0.0002532193	
        1.6810000000	       -0.0000000000	        0.0000000000	       -0.0000000000	        0.1988394961	        0.0000558755	       -0.3004071324	       -0.0000000000	        0.0000000000	        0.0000000000	       -0.0000000000	        0.0000000000	        0.0000000000	        0.2029003516	       -0.0000795827	        0.4543649445	        0.0000000000	        0.0000000000	        0.0000000000	       -0.0008760968	        0.0026136376	       -0.0018981100	        0.2076431971	        0.0000770316	        1.3583900146	       -0.0000869779	        0.0000739137	        0.0000489976	
        1.6820000000	       -0.0000000000	        0.0000000000	       -0.0000000000	        0.1988394961	        0.0000558755	       -0.3004071324	       -0.0000000000	       -0.0000000000	        0.0000000000	       -0.0000000000	        0.0000000000	        0.0000000000	        0.2029003516	       -0.0000795827	        0.4543649445	        0.0000000000	        0.0000000000	        0.0000000000	       -0.0003175236	        0.0000874516	       -0.0003276857	        0.2076431971	        0.0000770316	        1.3583900146	       -0.0000617387	       -0.0000252151	       -0.0000926741	
        1.6830000000	       -0.0000000000	        0.0000000000	       -0.0000000000	        0.1988394961	        0.0000558755	       -0.3004071324	       -0.0000000000	       -0.0000000000	        0.0000000000	       -0.0000000000	        0.0000000000	        0.0000000000	        0.2029003516	       -0.0000795827	        0.4543649445	        0.0000000000	        0.0000000000	        0.0000000000	        0.0000814684	        0.0000000000	        0.0007586636	        0.2076431971	        0.0000770316	        1.3583900146	       -0.0000407399	       -0.0000909112	       -0.0001830150	
        1.6840000000	       -0.0000000000	        0.0000000000	       -0.0000000000	        0.1988394961	        0.0000558755	       -0.3004071324	       -0.0000000000	       -0.0000000000	        0.0000000000	       -0.0000000000	        0.0000000000	        0.0000000000	        0.2029003516	       -0.0000795827	        0.4543649445	        0.0000000000	        0.0000000000	        0.0000000000	        0.0003471491	        0.0000000000	        0.0014483944	        0.2076431971	        0.0000770316	        1.3583900146	       -0.0000239351	       -0.0001297998	       -0.0002328567	
        1.6850000000	       -0.0000000000	        0.0000000000	       -0.0000000000	        0.1988394961	        0.0000558755	       -0.3004071324	       -0.0000000000	       -0.0000000000	        0.0000000000	       -0.0000000000	        0.0000000000	        0.0000000000	        0.2029003516	       -0.0000795827	        0.4543649445	        0.0000000000	        0.0000000000	        0.0000000000	        0.0005057027	        0.0000000000	        0.0018257198	        0.2076431971	        0.0000770316	        1.3583900146	       -0.0000110299	       -0.0001480572	       -0.0002520886	
        1.6860000000	       -0.0000000000	        0.0000000000	       -0.0000000000	        0.1988394961	        0.0000558755	       -0.3004071324	       -0.0000000000	       -0.0000000000	        0.0000000000	       -0.0000000000	        0.0000000000	        0.0000000000	        0.2029003516	       -0.0000795827	        0.4543649445	        0.0000000000	        0.0000000000	        0.0000000000	        0.0005816142	        0.0000000000	        0.0019673736	        0.2076431971	        0.0000770316	        1.3583900146	       -0.0000015802	       -0.0001511685	       -0.0002493411	
        1.6870000000	       -0.0000000000	        0.0000000000	       -0.0000000000	        0.1988394961	        0.0000558755	       -0.3004071324	       -0.0000000000	       -0.0000000000	        0.0000000000	       -0.0000000000	        0.0000000000	        0.0000000000	        0.2029003516	       -0.0000795827	        0.4543649445	        0.0000000000	        0.0000000000	        0.0000000000	        0.0005966804	        0.0000000000	        0.0019402041	        0.2076431971	        0.0000770316	        1.3583900146	        0.0000049322	       -0.0001438055	       -0.0002318487	
        1.6880000000	       -0.0000000000	        0.0000000000	       -0.0000000000	        0.1988394961	        0.0000558755	       -0.3004071324	       -0.0000000000	       -0.0000000000	        0.0000000000	       -0.0000000000	        0.0000000000	        0.0000000000	        0.2029003516	       -0.0000795827	        0.4543649445	        0.0000000000	        0.0000000000	        0.0000000000	        0.0005695082	        0.0000000000	        0.0018001610	        0.2076431971	        0.0000770316	        1.3583900146	        0.0000090429	       -0.0001297953	       -0.0002054458	
        1.6890000000	       -0.0000000000	        0.0000000000	       -0.0000000000	        0.1988394961	        0.0000558755	       -0.3004071324	       -0.0000000000	       -0.0000000000	        0.0000000000	       -0.0000000000	        0.0000000000	        0.0000000000	        0.2029003516	       -0.0000795827	        0.4543649445	        0.0000000000	        0.0000000000	        0.0000000000	        0.0005153726	        0.0000000000	        0.0015922905	        0.2076431971	        0.0000770316	        1.3583900146	        0.0000112659	       -0.0001121518	       -0.0001746502	
